<svg xmlns="http://www.w3.org/2000/svg" xmlns:xlink="http://www.w3.org/1999/xlink" version="1.1" x="0px" y="0px" viewBox="0 0 64 80" style="enable-background:new 0 0 64 64;" xml:space="preserve"><g><path d="M56.45,58.6l-5.98-6.32c1.48-0.12,2.66-1.4,2.66-2.98V8.03c0-1.3-0.79-2.45-1.97-2.85C44.99,3.07,38.54,2,31.99,2h-0.03   C25.42,2,18.97,3.07,12.8,5.18c-1.18,0.4-1.97,1.55-1.97,2.85V49.3c0,1.59,1.2,2.89,2.7,2.98L7.55,58.6   c-0.54,0.58-0.7,1.43-0.4,2.18c0.3,0.74,1,1.23,1.77,1.23h5.98c0.6,0,1.18-0.3,1.54-0.81l2.87-4.02h25.38l2.87,4.02   C47.92,61.7,48.5,62,49.1,62h5.98c0.78,0,1.47-0.48,1.77-1.23C57.15,60.03,56.99,59.17,56.45,58.6z M12.75,49.3V8.03   c0-0.44,0.26-0.82,0.65-0.95C19.37,5.04,25.62,4,31.96,4h0.03c6.34,0,12.59,1.04,18.57,3.08c0.39,0.13,0.65,0.51,0.65,0.95V49.3   c0,0.55-0.42,1-0.95,1H13.7C13.18,50.3,12.75,49.85,12.75,49.3z M14.9,60H8.92l7.28-7.7h4.2L14.9,60z M20.74,55.18l2.06-2.88H41.2   l2.06,2.88H20.74z M49.1,60l-5.5-7.7h4.2l7.28,7.7H49.1z"/><path d="M19.37,35.88h25.48c1.59,0,2.88-1.35,2.88-3V16.75c0-1.65-1.29-3-2.88-3H19.37c-1.59,0-2.88,1.35-2.88,3v16.13   C16.49,34.53,17.78,35.88,19.37,35.88z M45.81,16.75v16.13c0,0.55-0.43,1-0.96,1H33.07V15.75h11.78   C45.38,15.75,45.81,16.2,45.81,16.75z M18.41,16.75c0-0.55,0.43-1,0.96-1h11.78v18.13H19.37c-0.53,0-0.96-0.45-0.96-1V16.75z"/><path d="M28.56,10.34h7.09c0.53,0,0.96-0.45,0.96-1s-0.43-1-0.96-1h-7.09c-0.53,0-0.96,0.45-0.96,1S28.02,10.34,28.56,10.34z"/><path d="M36.47,40.96h-8.71c-0.53,0-0.96,0.45-0.96,1s0.43,1,0.96,1h8.71c0.53,0,0.96-0.45,0.96-1S37,40.96,36.47,40.96z"/><path d="M36.47,45.34h-8.71c-0.53,0-0.96,0.45-0.96,1s0.43,1,0.96,1h8.71c0.53,0,0.96-0.45,0.96-1S37,45.34,36.47,45.34z"/><path d="M20.55,48.38c2.24,0,4.06-1.9,4.06-4.23c0-2.33-1.82-4.23-4.06-4.23s-4.06,1.9-4.06,4.23   C16.49,46.48,18.31,48.38,20.55,48.38z M20.55,41.92c1.18,0,2.14,1,2.14,2.23s-0.96,2.23-2.14,2.23c-1.18,0-2.14-1-2.14-2.23   S19.37,41.92,20.55,41.92z"/><path d="M43.67,39.92c-2.24,0-4.06,1.9-4.06,4.23c0,2.33,1.82,4.23,4.06,4.23c2.24,0,4.06-1.9,4.06-4.23   C47.73,41.82,45.91,39.92,43.67,39.92z M43.67,46.38c-1.18,0-2.14-1-2.14-2.23s0.96-2.23,2.14-2.23c1.18,0,2.14,1,2.14,2.23   S44.85,46.38,43.67,46.38z"/><path d="M23.26,12.29c1.56,0,2.83-1.32,2.83-2.95s-1.27-2.95-2.83-2.95s-2.83,1.32-2.83,2.95S21.69,12.29,23.26,12.29z M23.26,8.39   c0.5,0,0.91,0.42,0.91,0.95s-0.41,0.95-0.91,0.95s-0.91-0.42-0.91-0.95S22.76,8.39,23.26,8.39z"/><path d="M40.95,12.29c1.56,0,2.83-1.32,2.83-2.95s-1.27-2.95-2.83-2.95s-2.83,1.32-2.83,2.95S39.39,12.29,40.95,12.29z M40.95,8.39   c0.5,0,0.91,0.42,0.91,0.95s-0.41,0.95-0.91,0.95s-0.91-0.42-0.91-0.95S40.45,8.39,40.95,8.39z"/></g><text x="0" y="79" fill="#000000" font-size="5px" font-weight="bold" font-family="'Helvetica Neue', Helvetica, Arial-Unicode, Arial, Sans-serif">Created by difatama</text><text x="0" y="84" fill="#000000" font-size="5px" font-weight="bold" font-family="'Helvetica Neue', Helvetica, Arial-Unicode, Arial, Sans-serif">from the Noun Project</text></svg>